<svg xmlns="http://www.w3.org/2000/svg" style="background:0 0" width="246.015" height="189.235" preserveAspectRatio="xMidYMid" viewBox="126.992 -19.618 246.015 189.235"><defs><linearGradient id="editing-outline-gradient" x1="-.414" x2="1.414" y1=".093" y2=".907"><stop offset="0" stop-color="#4c5cdb"/><stop offset="1" stop-color="#80d0ff"/></linearGradient><filter id="editing-outline" width="300%" height="300%" x="-100%" y="-100%"><feMorphology in="SourceGraphic" operator="dilate" radius="8" result="outline"/><feComposite in="outline" in2="SourceAlpha" operator="out"/></filter></defs><g filter="url(#editing-outline)"><g><path fill="url(#editing-outline-gradient)" d="M10.58 0L10.58-78.89L21.51-78.89L21.51 0L10.58 0ZM63.94 1.38L63.94 1.38Q50.03 1.38 43.01-6.38L43.01-6.38L43.01-6.38Q36.00-14.15 36.00-30.25L36.00-30.25L36.00-30.25Q36.00-46.34 43.01-54.11L43.01-54.11L43.01-54.11Q50.03-61.87 63.94-61.87L63.94-61.87L63.94-61.87Q77.86-61.87 84.87-54.11L84.87-54.11L84.87-54.11Q91.89-46.34 91.89-30.25L91.89-30.25L91.89-30.25Q91.89-14.15 84.87-6.38L84.87-6.38L84.87-6.38Q77.86 1.38 63.94 1.38L63.94 1.38ZM63.94-7.02L63.94-7.02Q73.14-7.02 77.28-12.36L77.28-12.36L77.28-12.36Q81.42-17.71 81.42-29.79L81.42-29.79L81.42-30.71L81.42-30.71Q81.42-42.78 77.28-48.13L77.28-48.13L77.28-48.13Q73.14-53.48 63.94-53.48L63.94-53.48L63.94-53.48Q54.74-53.48 50.60-48.13L50.60-48.13L50.60-48.13Q46.46-42.78 46.46-30.71L46.46-30.71L46.46-29.79L46.46-29.79Q46.46-17.71 50.60-12.36L50.60-12.36L50.60-12.36Q54.74-7.02 63.94-7.02L63.94-7.02ZM125.58 0L125.58-69.34L98.44-69.34L98.44-78.89L163.65-78.89L163.65-69.34L136.50-69.34L136.50 0L125.58 0Z" transform="translate(162.8850040435791, 115.1349983215332)"/></g></g><style/></svg>